<svg xmlns="http://www.w3.org/2000/svg" version="1.1" xmlns:xlink="http://www.w3.org/1999/xlink" xmlns:svgjs="http://svgjs.dev/svgjs" width="1000" height="645" viewBox="0 0 1000 645"><g transform="matrix(1,0,0,1,0.1066666666666265,0.6316735537189402)"><svg viewBox="0 0 375 242" data-background-color="#ffffff" preserveAspectRatio="xMidYMid meet" height="645" width="1000" xmlns="http://www.w3.org/2000/svg" xmlns:xlink="http://www.w3.org/1999/xlink"><g id="tight-bounds" transform="matrix(1,0,0,1,-0.03976036071776434,-0.23657482910152794)"><svg viewBox="0 0 375.07952880859375 242.47352600097656" height="242.47352600097656" width="375.07952880859375"><g><svg></svg></g><g><svg viewBox="0 0 375.07952880859375 242.47352600097656" height="242.47352600097656" width="375.07952880859375"><g transform="matrix(1,0,0,1,-10.220239639282227,-4.7264251708984375)"><path xmlns="http://www.w3.org/2000/svg" d="M10.22 242.474v-237.748h375.08v237.748l-125.038 0 0-5.113h119.925v-227.522h-364.854v227.522h20.706l0 5.113z" fill="#000000" fill-rule="nonzero" stroke="none" stroke-width="1" stroke-linecap="butt" stroke-linejoin="miter" stroke-miterlimit="10" stroke-dasharray="" stroke-dashoffset="0" font-family="none" font-weight="none" font-size="none" text-anchor="none" style="mix-blend-mode: normal" data-fill-palette-color="tertiary"></path><g><path xmlns="http://www.w3.org/2000/svg" d="M52.278 244.5v0c-0.6-0.153-0.9-0.382-0.9-0.688v0-10.376c0-0.24 0.322-0.475 0.966-0.704 0.644-0.229 1.32-0.344 2.029-0.343v0c0.96 0 1.44 0.251 1.44 0.753v0 1.849l-0.18 1.129h0.131c0.065-0.098 0.189-0.218 0.37-0.36 0.179-0.142 0.367-0.262 0.563-0.36v0c0.48-0.251 1.009-0.376 1.587-0.376 0.578 0 1.034 0.073 1.369 0.219 0.332 0.148 0.599 0.339 0.802 0.573 0.201 0.236 0.361 0.534 0.481 0.893v0c0.207 0.622 0.311 1.397 0.311 2.324v0c0 1.538-0.175 2.717-0.524 3.535-0.349 0.818-0.916 1.397-1.702 1.735-0.786 0.338-1.893 0.507-3.322 0.508-1.429 0-2.569-0.104-3.421-0.311zM55.797 237.38v5.025h0.507c0.349 0 0.524-0.838 0.524-2.514 0-1.674-0.18-2.511-0.54-2.511v0zM67.155 240.965h-0.54c0 0.709 0.338 1.064 1.015 1.063v0c0.393 0 0.906-0.134 1.538-0.402 0.633-0.266 0.966-0.399 0.998-0.4v0c0.207 0 0.48 0.311 0.819 0.933 0.338 0.622 0.507 1.08 0.507 1.375v0c0 0.426-0.436 0.747-1.309 0.966-0.873 0.218-1.726 0.327-2.56 0.327-0.836 0-1.534-0.065-2.095-0.196-0.563-0.131-1.022-0.298-1.378-0.501-0.354-0.201-0.664-0.448-0.933-0.743-0.266-0.295-0.465-0.576-0.596-0.845-0.131-0.266-0.235-0.563-0.31-0.89v0c-0.109-0.48-0.164-0.977-0.164-1.489v0c0-1.986 0.518-3.355 1.555-4.108v0c0.513-0.382 1.086-0.649 1.718-0.802 0.633-0.153 1.38-0.229 2.242-0.229v0c2.76 0 4.141 0.96 4.141 2.88v0c0 2.04-1.549 3.06-4.648 3.061zM66.582 238.575v0 1.08c0.316 0 0.576-0.125 0.779-0.376 0.201-0.251 0.301-0.556 0.301-0.917v0c0-0.655-0.169-0.982-0.507-0.982v0c-0.382 0-0.573 0.398-0.573 1.195zM82.654 239.23v0 5.04c0 0.12-0.311 0.215-0.933 0.285-0.622 0.072-1.262 0.108-1.922 0.108-0.661 0-1.087-0.031-1.276-0.091-0.192-0.059-0.288-0.159-0.288-0.302v0-5.204c0-0.491-0.019-0.813-0.056-0.966-0.039-0.153-0.075-0.289-0.108-0.409v0c-0.076-0.207-0.213-0.311-0.409-0.311v0c-0.305 0-0.458 0.147-0.458 0.442v0 6.448c0 0.12-0.308 0.215-0.923 0.285-0.618 0.072-1.256 0.108-1.915 0.108-0.661 0-1.09-0.031-1.287-0.091-0.196-0.059-0.295-0.159-0.294-0.302v0-8.068c0-0.229 0.314-0.458 0.942-0.687 0.626-0.229 1.289-0.344 1.987-0.344 0.698 0 1.091 0.202 1.179 0.605v0l0.147 0.721h0.115c0.316-0.633 0.862-1.075 1.636-1.326v0c0.316-0.098 0.666-0.147 1.048-0.147v0c1.102 0 1.847 0.33 2.235 0.988 0.386 0.661 0.579 1.734 0.58 3.218zM88.644 240.965h-0.541c0 0.709 0.338 1.064 1.015 1.063v0c0.393 0 0.906-0.134 1.539-0.402 0.633-0.266 0.966-0.399 0.998-0.4v0c0.207 0 0.48 0.311 0.818 0.933 0.338 0.622 0.507 1.08 0.508 1.375v0c0 0.426-0.436 0.747-1.31 0.966-0.873 0.218-1.726 0.327-2.559 0.327-0.836 0-1.534-0.065-2.095-0.196-0.563-0.131-1.021-0.298-1.375-0.501-0.356-0.201-0.667-0.448-0.933-0.743-0.268-0.295-0.468-0.576-0.599-0.845-0.131-0.266-0.235-0.563-0.311-0.89v0c-0.109-0.48-0.164-0.977-0.164-1.489v0c0-1.986 0.518-3.355 1.555-4.108v0c0.513-0.382 1.086-0.649 1.719-0.802 0.633-0.153 1.38-0.229 2.242-0.229v0c2.76 0 4.141 0.96 4.14 2.88v0c0 2.04-1.549 3.06-4.647 3.061zM88.071 238.575v0 1.08c0.316 0 0.576-0.125 0.779-0.376 0.201-0.251 0.301-0.556 0.301-0.917v0c0-0.655-0.169-0.982-0.507-0.982v0c-0.382 0-0.573 0.398-0.573 1.195zM101.491 239.262h-1.931v5.008c0 0.12-0.3 0.215-0.9 0.285-0.6 0.072-1.337 0.108-2.21 0.108-0.873 0-1.309-0.131-1.309-0.393v0-5.008h-0.835c-0.295 0-0.442-0.496-0.442-1.489v0c0-0.393 0.069-0.762 0.207-1.106 0.135-0.343 0.312-0.514 0.53-0.514v0h0.54c0-0.731 0.107-1.369 0.321-1.915 0.212-0.546 0.468-0.963 0.769-1.254 0.299-0.288 0.661-0.519 1.087-0.693v0c0.633-0.262 1.353-0.393 2.16-0.393v0c2.029 0 3.044 0.333 3.044 0.998v0c0 0.72-0.071 1.309-0.213 1.768-0.142 0.458-0.333 0.687-0.573 0.687v0c-0.098 0-0.28-0.036-0.546-0.108-0.268-0.07-0.523-0.105-0.763-0.105v0c-0.633 0-0.949 0.218-0.949 0.655v0c0 0.109 0.027 0.229 0.082 0.36v0h2.176c0.295 0 0.442 0.48 0.442 1.44v0c0 0.426-0.062 0.811-0.186 1.156-0.127 0.343-0.293 0.514-0.501 0.513zM107.923 236.202v0 8.068c0 0.12-0.313 0.215-0.94 0.285-0.628 0.072-1.273 0.108-1.934 0.108-0.659 0-1.085-0.031-1.277-0.091-0.19-0.059-0.285-0.159-0.284-0.302v0-7.773c0-0.24 0.309-0.478 0.926-0.714 0.615-0.233 1.289-0.35 2.019-0.35v0c0.993 0 1.489 0.256 1.49 0.769zM105.697 231.898v0c0.72 0 1.285 0.107 1.695 0.32 0.408 0.212 0.612 0.596 0.613 1.153v0c0 0.982-0.764 1.473-2.292 1.473-1.528 0-2.291-0.491-2.291-1.473 0-0.982 0.758-1.473 2.275-1.473zM115.582 244.516c-0.196 0.185-0.644 0.278-1.342 0.278-0.698 0-1.277-0.047-1.735-0.141-0.458-0.092-0.895-0.274-1.309-0.546v0c-0.796-0.535-1.195-1.648-1.195-3.339v0-2.553h-0.818c-0.12 0-0.224-0.125-0.311-0.376-0.087-0.251-0.131-0.595-0.131-1.031 0-0.436 0.069-0.822 0.206-1.156 0.135-0.332 0.312-0.498 0.531-0.497v0h0.523v-1.981c0-0.338 0.331-0.611 0.992-0.818 0.659-0.207 1.305-0.311 1.938-0.311v0c0.993 0 1.489 0.245 1.489 0.736v0 2.374h1.211c0.284 0 0.426 0.409 0.426 1.227v0c0 0.535-0.062 0.973-0.187 1.316-0.127 0.345-0.288 0.517-0.484 0.517v0h-0.966v2.995c0 0.295 0.125 0.504 0.376 0.628 0.251 0.127 0.472 0.19 0.665 0.19 0.19 0 0.307 0.093 0.35 0.279 0.044 0.185 0.065 0.464 0.066 0.834v0c0 0.731-0.098 1.189-0.295 1.375zM125.565 240.965h-0.54c0 0.709 0.338 1.064 1.015 1.063v0c0.393 0 0.906-0.134 1.538-0.402 0.633-0.266 0.966-0.399 0.999-0.4v0c0.207 0 0.48 0.311 0.818 0.933 0.338 0.622 0.507 1.08 0.507 1.375v0c0 0.426-0.436 0.747-1.309 0.966-0.873 0.218-1.727 0.327-2.563 0.327-0.834 0-1.532-0.065-2.095-0.196-0.561-0.131-1.019-0.298-1.374-0.501-0.354-0.201-0.663-0.448-0.93-0.743-0.268-0.295-0.468-0.576-0.599-0.845-0.131-0.266-0.235-0.563-0.311-0.89v0c-0.109-0.48-0.164-0.977-0.164-1.489v0c0-1.986 0.518-3.355 1.555-4.108v0c0.513-0.382 1.086-0.649 1.719-0.802 0.633-0.153 1.38-0.229 2.242-0.229v0c2.76 0 4.141 0.96 4.14 2.88v0c0 2.04-1.549 3.06-4.648 3.061zM124.993 238.575v0 1.08c0.316 0 0.576-0.125 0.779-0.376 0.201-0.251 0.301-0.556 0.301-0.917v0c0-0.655-0.169-0.982-0.508-0.982v0c-0.382 0-0.573 0.398-0.572 1.195zM135.984 244.401c-0.148 0.098-0.367 0.189-0.655 0.272-0.29 0.081-0.67 0.121-1.139 0.121-0.469 0-0.911-0.091-1.325-0.271-0.415-0.179-0.736-0.405-0.966-0.678-0.229-0.273-0.415-0.622-0.556-1.047v0c-0.207-0.655-0.311-1.478-0.311-2.472v0c0-1.888 0.433-3.244 1.299-4.068 0.868-0.823 2.274-1.234 4.216-1.234v0c1.08 0 1.855 0.038 2.324 0.114 0.469 0.076 0.846 0.147 1.129 0.213v0c0.6 0.142 0.9 0.371 0.9 0.687v0 10.606c0 0.12-0.302 0.216-0.906 0.288-0.607 0.07-1.346 0.105-2.22 0.104-0.873 0-1.309-0.131-1.309-0.392v0-1.85l0.197-1.129h-0.131c0 0.087-0.055 0.207-0.164 0.36-0.109 0.153-0.237 0.278-0.383 0.376zM135.991 237.397v0c-0.349 0-0.524 0.835-0.524 2.504 0 1.669 0.185 2.504 0.556 2.504v0c0.087 0 0.185-0.027 0.295-0.082 0.109-0.055 0.164-0.131 0.164-0.229v0-4.632c-0.076-0.044-0.24-0.065-0.491-0.065zM145.336 244.811v0c-1.222 0-2.075-0.316-2.56-0.95-0.487-0.633-0.73-1.735-0.73-3.306v0-4.451c0-0.218 0.322-0.429 0.966-0.632 0.644-0.201 1.32-0.301 2.029-0.301v0c0.949 0 1.424 0.245 1.424 0.736v0 4.157c0 0.829 0.033 1.431 0.098 1.807 0.065 0.378 0.229 0.566 0.491 0.566v0c0.349 0 0.524-0.147 0.524-0.441v0-5.892c0-0.229 0.338-0.442 1.014-0.638 0.676-0.196 1.413-0.295 2.21-0.295 0.796 0 1.195 0.213 1.195 0.638v0 8.429c0 0.153-0.344 0.262-1.031 0.327-0.687 0.065-1.364 0.098-2.03 0.098-0.666 0-1.004-0.087-1.015-0.262v0l-0.163-1.063h-0.131c-0.098 0.393-0.295 0.715-0.589 0.965v0c-0.153 0.131-0.379 0.248-0.678 0.35-0.301 0.105-0.643 0.157-1.024 0.158zM156.252 244.811v0c-0.993 0-1.773-0.235-2.341-0.704v0c-0.229-0.196-0.429-0.486-0.599-0.868-0.168-0.382-0.252-0.829-0.252-1.342 0-0.513 0.122-0.96 0.367-1.342 0.247-0.382 0.544-0.676 0.894-0.883 0.349-0.207 0.758-0.376 1.227-0.508v0c0.709-0.185 1.489-0.278 2.34-0.278v0h0.54c0-0.447-0.153-0.764-0.458-0.949v0c-0.131-0.076-0.331-0.115-0.599-0.115-0.266 0-0.587 0.071-0.962 0.213-0.378 0.142-0.692 0.286-0.943 0.432-0.251 0.148-0.42 0.223-0.507 0.223v0c-0.196 0-0.464-0.26-0.802-0.779-0.338-0.517-0.507-0.989-0.507-1.414v0c0-0.142 0.202-0.327 0.605-0.557 0.404-0.229 0.973-0.44 1.709-0.632 0.738-0.19 1.455-0.285 2.153-0.284 0.698 0 1.302 0.057 1.811 0.17 0.506 0.116 0.92 0.255 1.24 0.419 0.323 0.164 0.596 0.382 0.818 0.654 0.225 0.273 0.394 0.518 0.508 0.737 0.116 0.218 0.201 0.502 0.255 0.851v0c0.076 0.404 0.115 0.9 0.115 1.489v0 4.926c0 0.12-0.292 0.215-0.878 0.285-0.583 0.072-1.16 0.108-1.731 0.108-0.574 0-0.946-0.016-1.116-0.049-0.168-0.033-0.268-0.071-0.301-0.114-0.033-0.044-0.06-0.12-0.082-0.23v0l-0.131-0.932h-0.131c-0.273 0.982-1.02 1.473-2.242 1.473zM158.445 242.094v0-1.915c-0.284 0-0.513 0.12-0.688 0.36-0.175 0.24-0.262 0.513-0.261 0.818v0c0 0.72 0.164 1.08 0.491 1.08v0c0.142 0 0.253-0.036 0.333-0.108 0.083-0.07 0.124-0.148 0.125-0.235zM168.428 232.651v0 11.619c0 0.12-0.311 0.215-0.933 0.285-0.622 0.072-1.263 0.108-1.924 0.108-0.659 0-1.085-0.031-1.277-0.091-0.19-0.059-0.285-0.159-0.285-0.302v0-11.325c0-0.24 0.308-0.475 0.923-0.704 0.618-0.229 1.281-0.344 1.99-0.343v0c1.004 0 1.506 0.251 1.506 0.753zM174.025 244.811v0c-1.811 0-3.137-0.175-3.977-0.524v0c-0.426-0.185-0.638-0.366-0.638-0.54v0c0-0.447 0.131-0.971 0.393-1.571 0.262-0.6 0.491-0.9 0.687-0.901v0c0.109 0 0.477 0.12 1.103 0.361 0.628 0.24 1.158 0.36 1.588 0.36 0.432 0 0.716-0.027 0.851-0.082 0.137-0.055 0.206-0.161 0.206-0.321 0-0.157-0.109-0.283-0.327-0.376-0.218-0.092-0.491-0.154-0.819-0.187-0.327-0.033-0.68-0.098-1.057-0.196-0.375-0.098-0.727-0.224-1.054-0.377-0.327-0.153-0.6-0.407-0.818-0.762-0.218-0.354-0.327-0.735-0.327-1.146 0-0.408 0.011-0.714 0.032-0.917 0.022-0.201 0.111-0.484 0.269-0.851 0.159-0.364 0.383-0.661 0.671-0.89 0.29-0.229 0.738-0.436 1.342-0.622 0.607-0.185 1.286-0.278 2.039-0.278 0.753 0 1.382 0.024 1.889 0.072 0.508 0.05 0.907 0.113 1.194 0.19 0.29 0.076 0.528 0.164 0.714 0.262v0c0.316 0.164 0.475 0.344 0.475 0.54v0c0 0.426-0.153 0.916-0.459 1.473-0.305 0.556-0.549 0.835-0.73 0.834-0.179 0-0.568-0.096-1.168-0.288-0.6-0.19-1.042-0.285-1.326-0.284v0c-0.458 0-0.687 0.131-0.687 0.392v0c0 0.164 0.155 0.286 0.465 0.367 0.312 0.083 0.686 0.168 1.122 0.255 0.436 0.087 0.875 0.209 1.316 0.367 0.443 0.159 0.819 0.446 1.129 0.861 0.312 0.415 0.468 0.938 0.468 1.571v0c0 2.139-1.522 3.208-4.566 3.208zM188.041 244.401c-0.146 0.098-0.364 0.189-0.654 0.272-0.288 0.081-0.667 0.121-1.136 0.121-0.469 0-0.911-0.091-1.326-0.271-0.415-0.179-0.736-0.405-0.965-0.678-0.229-0.273-0.415-0.622-0.557-1.047v0c-0.207-0.655-0.311-1.478-0.311-2.472v0c0-1.888 0.434-3.244 1.303-4.068 0.866-0.823 2.271-1.234 4.212-1.234v0c1.08 0 1.855 0.038 2.324 0.114 0.469 0.076 0.846 0.147 1.13 0.213v0c0.6 0.142 0.9 0.371 0.9 0.687v0 10.606c0 0.12-0.303 0.216-0.91 0.288-0.604 0.07-1.343 0.105-2.216 0.104-0.873 0-1.309-0.131-1.309-0.392v0-1.85l0.196-1.129h-0.131c0 0.087-0.055 0.207-0.164 0.36-0.109 0.153-0.238 0.278-0.386 0.376zM188.051 237.397v0c-0.349 0-0.524 0.835-0.524 2.504 0 1.669 0.185 2.504 0.557 2.504v0c0.087 0 0.185-0.027 0.294-0.082 0.109-0.055 0.164-0.131 0.164-0.229v0-4.632c-0.076-0.044-0.24-0.065-0.491-0.065zM197.396 244.811v0c-1.222 0-2.076-0.316-2.563-0.95-0.484-0.633-0.727-1.735-0.727-3.306v0-4.451c0-0.218 0.322-0.429 0.966-0.632 0.644-0.201 1.32-0.301 2.029-0.301v0c0.949 0 1.424 0.245 1.424 0.736v0 4.157c0 0.829 0.033 1.431 0.098 1.807 0.065 0.378 0.229 0.566 0.491 0.566v0c0.349 0 0.524-0.147 0.524-0.441v0-5.892c0-0.229 0.338-0.442 1.015-0.638 0.676-0.196 1.413-0.295 2.209-0.295 0.796 0 1.195 0.213 1.195 0.638v0 8.429c0 0.153-0.344 0.262-1.031 0.327-0.687 0.065-1.364 0.098-2.029 0.098-0.666 0-1.004-0.087-1.015-0.262v0l-0.164-1.063h-0.131c-0.098 0.393-0.295 0.715-0.589 0.965v0c-0.153 0.131-0.38 0.248-0.681 0.35-0.299 0.105-0.639 0.157-1.021 0.158zM208.312 244.811v0c-0.993 0-1.773-0.235-2.34-0.704v0c-0.229-0.196-0.429-0.486-0.599-0.868-0.168-0.382-0.252-0.829-0.252-1.342 0-0.513 0.122-0.96 0.366-1.342 0.247-0.382 0.544-0.676 0.894-0.883 0.349-0.207 0.758-0.376 1.227-0.508v0c0.709-0.185 1.489-0.278 2.341-0.278v0h0.54c0-0.447-0.153-0.764-0.458-0.949v0c-0.131-0.076-0.331-0.115-0.599-0.115-0.266 0-0.588 0.071-0.966 0.213-0.375 0.142-0.688 0.286-0.939 0.432-0.251 0.148-0.42 0.223-0.508 0.223v0c-0.196 0-0.464-0.26-0.802-0.779-0.338-0.517-0.507-0.989-0.507-1.414v0c0-0.142 0.202-0.327 0.606-0.557 0.404-0.229 0.973-0.44 1.708-0.632 0.738-0.19 1.455-0.285 2.154-0.284 0.698 0 1.301 0.057 1.807 0.17 0.508 0.116 0.923 0.255 1.244 0.419 0.323 0.164 0.596 0.382 0.818 0.654 0.225 0.273 0.394 0.518 0.507 0.737 0.116 0.218 0.201 0.502 0.255 0.851v0c0.076 0.404 0.115 0.9 0.115 1.489v0 4.926c0 0.12-0.292 0.215-0.877 0.285-0.583 0.072-1.161 0.108-1.735 0.108-0.572 0-0.943-0.016-1.113-0.049-0.168-0.033-0.268-0.071-0.301-0.114-0.033-0.044-0.06-0.12-0.082-0.23v0l-0.131-0.932h-0.131c-0.273 0.982-1.02 1.473-2.242 1.473zM210.505 242.094v0-1.915c-0.284 0-0.513 0.12-0.687 0.36-0.175 0.24-0.262 0.513-0.262 0.818v0c0 0.72 0.164 1.08 0.491 1.08v0c0.142 0 0.253-0.036 0.334-0.108 0.083-0.07 0.124-0.148 0.124-0.235zM220.489 232.651v0 11.619c0 0.12-0.311 0.215-0.933 0.285-0.622 0.072-1.263 0.108-1.925 0.108-0.659 0-1.085-0.031-1.277-0.091-0.19-0.059-0.285-0.159-0.284-0.302v0-11.325c0-0.24 0.308-0.475 0.923-0.704 0.618-0.229 1.281-0.344 1.99-0.343v0c1.004 0 1.506 0.251 1.506 0.753zM226.135 236.202v0 8.068c0 0.12-0.314 0.215-0.943 0.285-0.626 0.072-1.27 0.108-1.931 0.108-0.659 0-1.085-0.031-1.277-0.091-0.19-0.059-0.285-0.159-0.284-0.302v0-7.773c0-0.24 0.308-0.478 0.923-0.714 0.618-0.233 1.292-0.35 2.023-0.35v0c0.993 0 1.489 0.256 1.489 0.769zM223.909 231.898v0c0.72 0 1.284 0.107 1.692 0.32 0.41 0.212 0.615 0.596 0.616 1.153v0c0 0.982-0.764 1.473-2.292 1.473-1.528 0-2.291-0.491-2.291-1.473 0-0.982 0.758-1.473 2.275-1.473zM233.794 244.516c-0.196 0.185-0.644 0.278-1.342 0.278-0.698 0-1.277-0.047-1.735-0.141-0.458-0.092-0.895-0.274-1.309-0.546v0c-0.796-0.535-1.195-1.648-1.195-3.339v0-2.553h-0.818c-0.12 0-0.224-0.125-0.311-0.376-0.087-0.251-0.131-0.595-0.131-1.031 0-0.436 0.068-0.822 0.203-1.156 0.137-0.332 0.315-0.498 0.534-0.497v0h0.523v-1.981c0-0.338 0.33-0.611 0.989-0.818 0.661-0.207 1.308-0.311 1.941-0.311v0c0.993 0 1.489 0.245 1.489 0.736v0 2.374h1.211c0.284 0 0.426 0.409 0.426 1.227v0c0 0.535-0.063 0.973-0.19 1.316-0.124 0.345-0.285 0.517-0.481 0.517v0h-0.966v2.995c0 0.295 0.125 0.504 0.377 0.628 0.251 0.127 0.471 0.19 0.661 0.19 0.192 0 0.31 0.093 0.353 0.279 0.044 0.185 0.065 0.464 0.066 0.834v0c0 0.731-0.098 1.189-0.295 1.375zM240.766 243.599v0-0.965h-0.131c-0.055 0.055-0.136 0.125-0.245 0.213-0.109 0.087-0.366 0.202-0.77 0.343-0.404 0.142-0.854 0.213-1.351 0.213-0.495 0-0.932-0.08-1.31-0.239-0.375-0.157-0.672-0.37-0.89-0.638-0.218-0.266-0.387-0.623-0.507-1.07v0c-0.207-0.709-0.311-1.713-0.311-3.012v0-2.258c0-0.229 0.322-0.456 0.965-0.681 0.644-0.223 1.32-0.334 2.03-0.334v0c0.949 0 1.424 0.245 1.424 0.736v0 2.063c0 2.182 0.175 3.273 0.523 3.273v0c0.207 0 0.311-0.147 0.311-0.442v0-4.615c0-0.229 0.344-0.456 1.031-0.681 0.687-0.223 1.424-0.334 2.21-0.334 0.786 0 1.178 0.213 1.178 0.638v0 7.741c0 2.433-1.648 3.65-4.942 3.65v0c-1.735 0-2.913-0.169-3.536-0.507v0c-0.273-0.153-0.409-0.311-0.409-0.475v0c0-0.262 0.109-0.7 0.328-1.316 0.218-0.618 0.42-0.926 0.605-0.926v0c0.044 0 0.196 0.033 0.458 0.098v0c0.807 0.218 1.481 0.327 2.02 0.327 0.541 0 0.896-0.06 1.064-0.18 0.17-0.12 0.255-0.327 0.255-0.622z" fill="#89939e" fill-rule="nonzero" stroke="none" stroke-width="1" stroke-linecap="butt" stroke-linejoin="miter" stroke-miterlimit="10" stroke-dasharray="" stroke-dashoffset="0" font-family="none" font-weight="none" font-size="none" text-anchor="none" style="mix-blend-mode: normal" data-fill-palette-color="secondary"></path></g></g><g transform="matrix(1,0,0,1,29.331764404296877,59.88336330232083)"><svg viewBox="0 0 316.416 122.7067993963349" height="122.7067993963349" width="316.416"><g><svg viewBox="0 0 316.416 122.7067993963349" height="122.7067993963349" width="316.416"><g><svg viewBox="0 0 316.416 122.7067993963349" height="122.7067993963349" width="316.416"><g><svg viewBox="0 0 316.416 122.7067993963349" height="122.7067993963349" width="316.416" id="textblock"><g><svg viewBox="0 0 316.416 122.7067993963349" height="122.7067993963349" width="316.416"><g transform="matrix(1,0,0,1,0,0)"><svg width="316.416" viewBox="1.9499995708465576 -36.040000915527344 206.00999450683594 76.05000305175781" height="122.7067993963349" data-palette-color="#000000"><svg></svg><svg></svg><g class="undefined-text-0" data-fill-palette-color="primary" id="text-0"><path xmlns="http://www.w3.org/2000/svg" d="M24.22-20.26v3.83h-15.41v12.6h17.9v3.83h-22.58v-35.55h22.33v3.86h-17.65v11.43zM35.57-35.55l8.57 13.63 8.52-13.63h5.52l-11.23 17.63 11.5 17.92h-5.57l-8.74-13.87-8.79 13.87h-5.54l11.52-17.92-11.25-17.63zM76.95-13.92h-8.37v13.92h-4.69v-35.55h13.11c3.893 0 6.943 0.993 9.15 2.98 2.2 1.987 3.3 4.617 3.3 7.89v0c0 3.447-1.077 6.103-3.23 7.97-2.16 1.86-5.25 2.79-9.27 2.79zM68.58-31.69v13.94h8.42c2.507 0 4.427-0.59 5.76-1.77 1.34-1.18 2.01-2.883 2.01-5.11v0c0-2.12-0.67-3.813-2.01-5.08-1.333-1.273-3.163-1.933-5.49-1.98v0zM116.19 0l-7.72-14.38h-8.35v14.38h-4.71v-35.55h11.77c4 0 7.08 0.913 9.24 2.74 2.153 1.82 3.23 4.473 3.23 7.96v0c0 2.213-0.597 4.14-1.79 5.78-1.2 1.647-2.863 2.877-4.99 3.69v0l8.35 15.09v0.29zM100.12-31.69v13.48h7.2c2.333 0 4.187-0.603 5.56-1.81 1.373-1.207 2.06-2.817 2.06-4.83v0c0-2.2-0.653-3.887-1.96-5.06-1.313-1.173-3.207-1.767-5.68-1.78v0zM146.31-20.26v3.83h-15.4v12.6h17.89v3.83h-22.58v-35.55h22.34v3.86h-17.65v11.43zM165.11-15.84v0c-4.02-1.16-6.943-2.58-8.77-4.26-1.833-1.687-2.75-3.767-2.75-6.24v0c0-2.8 1.12-5.117 3.36-6.95 2.233-1.833 5.14-2.75 8.72-2.75v0c2.447 0 4.623 0.473 6.53 1.42 1.913 0.947 3.397 2.25 4.45 3.91 1.047 1.66 1.57 3.473 1.57 5.44v0h-4.71c0-2.147-0.683-3.833-2.05-5.06-1.367-1.233-3.297-1.85-5.79-1.85v0c-2.307 0-4.107 0.51-5.4 1.53-1.293 1.013-1.94 2.423-1.94 4.23v0c0 1.453 0.613 2.68 1.84 3.68 1.227 1 3.317 1.913 6.27 2.74 2.953 0.833 5.267 1.75 6.94 2.75 1.667 1 2.903 2.167 3.71 3.5 0.807 1.34 1.21 2.913 1.21 4.72v0c0 2.88-1.123 5.187-3.37 6.92-2.247 1.733-5.25 2.6-9.01 2.6v0c-2.44 0-4.72-0.47-6.84-1.41-2.113-0.933-3.743-2.213-4.89-3.84-1.147-1.627-1.72-3.473-1.72-5.54v0h4.71c0 2.147 0.793 3.843 2.38 5.09 1.587 1.247 3.707 1.87 6.36 1.87v0c2.473 0 4.37-0.507 5.69-1.52 1.313-1.007 1.97-2.38 1.97-4.12 0-1.747-0.61-3.093-1.83-4.04-1.22-0.953-3.433-1.893-6.64-2.82zM194.78-15.84v0c-4.02-1.16-6.947-2.58-8.78-4.26-1.833-1.687-2.75-3.767-2.75-6.24v0c0-2.8 1.12-5.117 3.36-6.95 2.24-1.833 5.15-2.75 8.73-2.75v0c2.44 0 4.617 0.473 6.53 1.42 1.913 0.947 3.393 2.25 4.44 3.91 1.053 1.66 1.58 3.473 1.58 5.44v0h-4.72c0-2.147-0.683-3.833-2.05-5.06-1.367-1.233-3.293-1.85-5.78-1.85v0c-2.313 0-4.117 0.51-5.41 1.53-1.293 1.013-1.94 2.423-1.94 4.23v0c0 1.453 0.613 2.68 1.84 3.68 1.227 1 3.32 1.913 6.28 2.74 2.953 0.833 5.263 1.75 6.93 2.75 1.667 1 2.903 2.167 3.71 3.5 0.807 1.34 1.21 2.913 1.21 4.72v0c0 2.88-1.123 5.187-3.37 6.92-2.247 1.733-5.25 2.6-9.01 2.6v0c-2.44 0-4.717-0.47-6.83-1.41-2.12-0.933-3.753-2.213-4.9-3.84-1.147-1.627-1.72-3.473-1.72-5.54v0h4.71c0 2.147 0.793 3.843 2.38 5.09 1.587 1.247 3.707 1.87 6.36 1.87v0c2.473 0 4.37-0.507 5.69-1.52 1.32-1.007 1.98-2.38 1.98-4.12 0-1.747-0.61-3.093-1.83-4.04-1.227-0.953-3.44-1.893-6.64-2.82z" fill="#000000" fill-rule="nonzero" stroke="none" stroke-width="1" stroke-linecap="butt" stroke-linejoin="miter" stroke-miterlimit="10" stroke-dasharray="" stroke-dashoffset="0" font-family="none" font-weight="none" font-size="none" text-anchor="none" style="mix-blend-mode: normal" data-fill-palette-color="primary" opacity="1"></path><path xmlns="http://www.w3.org/2000/svg" d="M14.6 23.68v0c-4.02-1.16-6.947-2.58-8.78-4.26-1.827-1.687-2.74-3.767-2.74-6.24v0c0-2.8 1.117-5.117 3.35-6.95 2.24-1.833 5.15-2.75 8.73-2.75v0c2.44 0 4.617 0.473 6.53 1.42 1.913 0.947 3.397 2.25 4.45 3.91 1.047 1.66 1.57 3.473 1.57 5.44v0h-4.71c0-2.147-0.683-3.833-2.05-5.06-1.367-1.233-3.297-1.85-5.79-1.85v0c-2.313 0-4.117 0.51-5.41 1.53-1.293 1.013-1.94 2.423-1.94 4.23v0c0 1.453 0.617 2.68 1.85 3.68 1.227 1 3.317 1.913 6.27 2.74 2.953 0.833 5.263 1.75 6.93 2.75 1.673 1 2.91 2.167 3.71 3.5 0.807 1.34 1.21 2.913 1.21 4.72v0c0 2.88-1.123 5.187-3.37 6.92-2.247 1.733-5.247 2.6-9 2.6v0c-2.447 0-4.727-0.47-6.84-1.41-2.113-0.933-3.747-2.213-4.9-3.84-1.147-1.627-1.72-3.473-1.72-5.54v0h4.72c0 2.147 0.793 3.843 2.38 5.09 1.587 1.247 3.707 1.87 6.36 1.87v0c2.473 0 4.367-0.507 5.68-1.52 1.32-1.007 1.98-2.38 1.98-4.12 0-1.747-0.61-3.093-1.83-4.04-1.22-0.953-3.433-1.893-6.64-2.82zM61.11 3.97v35.55h-4.71v-16.43h-17.92v16.43h-4.69v-35.55h4.69v15.29h17.92v-15.29zM96.78 20.65v2.24c0 3.487-0.587 6.527-1.76 9.12-1.173 2.6-2.833 4.583-4.98 5.95-2.147 1.367-4.653 2.05-7.52 2.05v0c-2.8 0-5.283-0.687-7.45-2.06-2.16-1.38-3.84-3.343-5.04-5.89-1.193-2.547-1.807-5.497-1.84-8.85v0-2.56c0-3.42 0.593-6.44 1.78-9.06 1.187-2.62 2.867-4.627 5.04-6.02 2.173-1.393 4.66-2.09 7.46-2.09v0c2.847 0 5.357 0.69 7.53 2.07 2.173 1.373 3.847 3.367 5.02 5.98 1.173 2.613 1.76 5.653 1.76 9.12zM92.11 23.24v-2.64c0-4.213-0.843-7.45-2.53-9.71-1.693-2.253-4.063-3.38-7.11-3.38v0c-2.96 0-5.29 1.127-6.99 3.38-1.707 2.26-2.583 5.39-2.63 9.39v0 2.61c0 4.087 0.86 7.3 2.58 9.64 1.713 2.333 4.077 3.5 7.09 3.5v0c3.027 0 5.37-1.103 7.03-3.31 1.66-2.207 2.513-5.367 2.56-9.48zM116.87 25.6h-8.37v13.92h-4.69v-35.55h13.11c3.887 0 6.933 0.993 9.14 2.98 2.207 1.987 3.31 4.617 3.31 7.89v0c0 3.447-1.077 6.103-3.23 7.97-2.16 1.86-5.25 2.79-9.27 2.79zM108.5 7.83v13.94h8.42c2.507 0 4.427-0.59 5.76-1.77 1.333-1.18 2-2.883 2-5.11v0c0-2.12-0.667-3.813-2-5.08-1.333-1.273-3.163-1.933-5.49-1.98v0z" fill="#000000" fill-rule="nonzero" stroke="none" stroke-width="1" stroke-linecap="butt" stroke-linejoin="miter" stroke-miterlimit="10" stroke-dasharray="" stroke-dashoffset="0" font-family="none" font-weight="none" font-size="none" text-anchor="none" style="mix-blend-mode: normal" data-fill-palette-color="primary" opacity="1"></path></g></svg></g></svg></g></svg></g></svg></g></svg></g></svg></g></svg></g><defs></defs></svg><rect width="375.07952880859375" height="242.47352600097656" fill="none" stroke="none" visibility="hidden"></rect></g></svg></g></svg>